ffmpeg version 3.4.8-0ubuntu0.2 Copyright (c) 2000-2020 the FFmpeg developers
  built with gcc 7 (Ubuntu 7.5.0-3ubuntu1~18.04)
  configuration: --prefix=/usr --extra-version=0ubuntu0.2 --toolchain=hardened --libdir=/usr/lib/x86_64-linux-gnu --incdir=/usr/include/x86_64-linux-gnu --enable-gpl --disable-stripping --enable-avresample --enable-avisynth --enable-gnutls --enable-ladspa --enable-libass --enable-libbluray --enable-libbs2b --enable-libcaca --enable-libcdio --enable-libflite --enable-libfontconfig --enable-libfreetype --enable-libfribidi --enable-libgme --enable-libgsm --enable-libmp3lame --enable-libmysofa --enable-libopenjpeg --enable-libopenmpt --enable-libopus --enable-libpulse --enable-librubberband --enable-librsvg --enable-libshine --enable-libsnappy --enable-libsoxr --enable-libspeex --enable-libssh --enable-libtheora --enable-libtwolame --enable-libvorbis --enable-libvpx --enable-libwavpack --enable-libwebp --enable-libx265 --enable-libxml2 --enable-libxvid --enable-libzmq --enable-libzvbi --enable-omx --enable-openal --enable-opengl --enable-sdl2 --enable-libdc1394 --enable-libdrm --enable-libiec61883 --enable-chromaprint --enable-frei0r --enable-libopencv --enable-libx264 --enable-shared
  libavutil      55. 78.100 / 55. 78.100
  libavcodec     57.107.100 / 57.107.100
  libavformat    57. 83.100 / 57. 83.100
  libavdevice    57. 10.100 / 57. 10.100
  libavfilter     6.107.100 /  6.107.100
  libavresample   3.  7.  0 /  3.  7.  0
  libswscale      4.  8.100 /  4.  8.100
  libswresample   2.  9.100 /  2.  9.100
  libpostproc    54.  7.100 / 54.  7.100
[rawvideo @ 0x559e0658ea20] Estimating duration from bitrate, this may be inaccurate
Input #0, rawvideo, from '../../SVC-Encoder-20220109T061506Z-001/SVC-Encoder/Dataset/RollerCoaster/ERP_8x8/tile_yuv/Tile_45_480x240.yuv':
  Duration: 00:00:10.00, start: 0.000000, bitrate: 41472 kb/s
    Stream #0:0: Video: rawvideo (I420 / 0x30323449), yuv420p, 480x240, 41472 kb/s, 30 tbr, 30 tbn, 30 tbc
Stream mapping:
  Stream #0:0 -> #0:0 (rawvideo (native) -> h264 (libx264))
Press [q] to stop, [?] for help
[libx264 @ 0x559e0659bc60] using cpu capabilities: MMX2 SSE2Fast LZCNT SSSE3 SSE4.2 AVX
[libx264 @ 0x559e0659bc60] profile High, level 2.1
Output #0, rawvideo, to 'RollerCoaster_Tile_45_480x240_x264_QP_24.h264':
  Metadata:
    encoder         : Lavf57.83.100
    Stream #0:0: Video: h264 (libx264), yuv420p, 480x240, q=-1--1, 30 fps, 30 tbn, 30 tbc
    Metadata:
      encoder         : Lavc57.107.100 libx264
    Side data:
      cpb: bitrate max/min/avg: 0/0/0 buffer size: 0 vbv_delay: -1
frame=  122 fps=0.0 q=30.0 PSNR=Y:nan U:nan V:nan *:nan size=     130kB time=00:00:02.63 bitrate= 405.8kbits/s speed=5.26x    frame=  227 fps=227 q=30.0 PSNR=Y:nan U:nan V:nan *:nan size=     256kB time=00:00:06.13 bitrate= 341.9kbits/s speed=6.12x    frame=  300 fps=198 q=30.0 LPSNR=Y:inf U:inf V:inf *:inf size=     467kB time=00:00:09.93 bitrate= 385.2kbits/s speed=6.56x    
video:467kB audio:0kB subtitle:0kB other streams:0kB global headers:0kB muxing overhead: 0.000000%
[libx264 @ 0x559e0659bc60] frame I:2     Avg QP:23.07  size: 15649  PSNR Mean Y:43.81 U:46.42 V:48.81 Avg:44.72 Global:44.58
[libx264 @ 0x559e0659bc60] frame P:82    Avg QP:25.03  size:  3736  PSNR Mean Y:41.00 U:46.13 V:48.17 Avg:42.25 Global:42.18
[libx264 @ 0x559e0659bc60] frame B:216   Avg QP:29.52  size:   651  PSNR Mean Y:40.94 U:46.38 V:48.28 Avg:42.21 Global:42.13
[libx264 @ 0x559e0659bc60] consecutive B-frames:  0.7%  7.3%  8.0% 84.0%
[libx264 @ 0x559e0659bc60] mb I  I16..4:  2.0% 71.1% 26.9%
[libx264 @ 0x559e0659bc60] mb P  I16..4:  0.6%  3.1%  1.0%  P16..4: 42.7% 30.5% 10.9%  0.0%  0.0%    skip:11.1%
[libx264 @ 0x559e0659bc60] mb B  I16..4:  0.0%  0.0%  0.0%  B16..8: 48.9%  7.5%  1.4%  direct: 0.6%  skip:41.6%  L0:39.4% L1:55.4% BI: 5.2%
[libx264 @ 0x559e0659bc60] 8x8 transform intra:66.9% inter:69.8%
[libx264 @ 0x559e0659bc60] coded y,uvDC,uvAC intra: 81.6% 85.7% 47.5% inter: 16.0% 12.6% 0.2%
[libx264 @ 0x559e0659bc60] i16 v,h,dc,p:  1% 70% 10% 18%
[libx264 @ 0x559e0659bc60] i8 v,h,dc,ddl,ddr,vr,hd,vl,hu:  4% 31% 11%  4% 12%  8% 17%  3% 10%
[libx264 @ 0x559e0659bc60] i4 v,h,dc,ddl,ddr,vr,hd,vl,hu:  5% 30% 12%  3% 12%  8% 23%  2%  5%
[libx264 @ 0x559e0659bc60] i8c dc,h,v,p: 35% 51%  6%  8%
[libx264 @ 0x559e0659bc60] Weighted P-Frames: Y:0.0% UV:0.0%
[libx264 @ 0x559e0659bc60] ref P L0: 59.3% 19.0% 15.1%  6.6%
[libx264 @ 0x559e0659bc60] ref B L0: 89.9%  8.7%  1.4%
[libx264 @ 0x559e0659bc60] ref B L1: 95.5%  4.5%
[libx264 @ 0x559e0659bc60] PSNR Mean Y:40.971 U:46.311 V:48.257 Avg:42.238 Global:42.154 kb/s:382.59
